<?xml version="1.0" encoding="UTF-8"?>
<svg width="124px" height="17px" viewBox="0 0 124 17" version="1.1" xmlns="http://www.w3.org/2000/svg" xmlns:xlink="http://www.w3.org/1999/xlink">
    <!-- Generator: Sketch 59.1 (86144) - https://sketch.com -->
    <title>components/branding/logo-enpicom</title>
    <desc>Created with Sketch.</desc>
    <defs>
        <polygon id="path-1" points="6.18453865e-05 0.255618182 18.7061267 0.255618182 18.7061267 16.6909091 6.18453865e-05 16.6909091"></polygon>
        <polygon id="path-3" points="0 16.7445055 123.707781 16.7445055 123.707781 0.309214545 0 0.309214545"></polygon>
    </defs>
    <g id="Home" stroke="none" stroke-width="1" fill="none" fill-rule="evenodd">
        <g id="ep-vd-home-menu" transform="translate(-20.000000, -74.000000)">
            <g id="header">
                <g id="components/basic/header">
                    <g id="header">
                        <g id="components/branding/logo-enpicom" transform="translate(20.000000, 74.000000)">
                            <g id="Group-15">
                                <g id="Group-3" transform="translate(0.000000, 0.053596)">
                                    <mask id="mask-2" fill="white">
                                        <use xlink:href="#path-1"></use>
                                    </mask>
                                    <g id="Clip-2"></g>
                                    <path d="M6.01452569,15.5309836 C5.96937855,15.3696382 5.88248579,15.2259109 5.76374264,15.11402 L6.45981247,13.9082564 C6.54299451,13.9329836 6.62926883,13.9506018 6.72049077,13.9506018 C7.02786234,13.9506018 7.29843591,13.7976018 7.46387232,13.5651655 L12.3876928,15.5325291 L6.01452569,15.5309836 Z M5.89114414,12.6579836 C5.83826633,12.7738927 5.80641596,12.9012382 5.80641596,13.0372382 C5.80641596,13.2981109 5.91804688,13.5324018 6.09368778,13.6990018 L5.39730873,14.9056927 C5.31474514,14.8809655 5.22908928,14.8639655 5.13879501,14.8639655 C5.06025137,14.8639655 4.98572768,14.8769473 4.91275012,14.8951836 L1.724002,9.38192909 L5.89114414,12.6579836 Z M4.90347332,2.05029273 C4.97706933,2.06914727 5.0525207,2.08243818 5.13199202,2.08243818 C5.22197706,2.08243818 5.30732369,2.06543818 5.38957805,2.04102 L6.08688479,3.24709273 C5.91093466,3.41369273 5.79961297,3.64798364 5.79961297,3.90947455 C5.79961297,4.04640182 5.83177257,4.17529273 5.88619651,4.29212909 L1.68689476,7.59692909 C2.42563791,6.30832909 3.77819651,3.98056545 4.90347332,2.05029273 L4.90347332,2.05029273 Z M7.45954314,3.38463818 C7.29410673,3.15003818 7.02229626,2.99580182 6.71337855,2.99580182 C6.62246584,2.99580182 6.53619152,3.01311091 6.4533187,3.03814727 L5.7563212,1.83269273 C5.87475511,1.72142 5.96102943,1.57862 6.00710424,1.41789273 L12.3815082,1.41943818 L7.45954314,3.38463818 Z M14.7112239,9.38162 C15.09281,9.34731091 15.4045107,9.08087455 15.5050095,8.72232909 L16.9163212,8.72263818 C16.9583761,8.87162 17.0338274,9.00638364 17.1392738,9.11394727 L13.9557825,14.6284382 L14.7112239,9.38162 Z M6.9286005,12.1495291 L6.92458055,4.79594727 C7.1008399,4.75391091 7.25638105,4.66211091 7.37605187,4.53507455 L13.7575681,8.21603818 C13.7325207,8.29918364 13.7148948,8.38542 13.7148948,8.47691091 C13.7148948,8.56716545 13.7322115,8.65247455 13.7566404,8.73500182 L7.38409177,12.4119473 C7.26287481,12.2836745 7.10609676,12.1909473 6.9286005,12.1495291 L6.9286005,12.1495291 Z M16.9172489,8.22716545 L15.5037726,8.22685636 C15.4017277,7.87047455 15.0915731,7.60558364 14.7109147,7.57158364 L13.9499072,2.32445636 L17.139583,7.83863818 C17.0350643,7.94589273 16.959613,8.07942 16.9172489,8.22716545 L16.9172489,8.22716545 Z M13.4873037,2.07440182 L14.2928399,7.62907455 C14.1682214,7.67852909 14.0578274,7.75425636 13.9669147,7.84976545 L7.5853985,4.16880182 C7.60982743,4.08596545 7.62745337,4.00003818 7.62745337,3.90947455 C7.62745337,3.86403818 7.62034115,3.82045636 7.61384738,3.77687455 L12.824012,1.69669273 C12.9746055,1.90872909 13.2133287,2.05029273 13.4873037,2.07440182 L13.4873037,2.07440182 Z M1.7413187,8.85925636 C1.79543342,8.74242 1.82790224,8.61383818 1.82790224,8.47691091 C1.82790224,8.33843818 1.79481496,8.20923818 1.7400818,8.09209273 L6.14842095,4.62223818 C6.25139352,4.70383818 6.37075511,4.76472909 6.50279501,4.79625636 L6.50650574,12.1513836 C6.37446584,12.18322 6.25510424,12.24442 6.15213167,12.3266382 L1.7413187,8.85925636 Z M12.8271042,15.2540382 L7.62034115,13.1735473 C7.62745337,13.1287291 7.63425636,13.0839109 7.63425636,13.0372382 C7.63425636,12.9466745 7.61724888,12.8607473 7.59281995,12.7785291 L13.9653686,9.10127455 C14.0565905,9.19832909 14.167603,9.27498364 14.2931491,9.32474727 L13.494416,14.8720018 C13.2185855,14.8961109 12.978007,15.0395291 12.8271042,15.2540382 L12.8271042,15.2540382 Z M17.7923611,7.56323818 C17.7153636,7.56323818 17.6420768,7.57560182 17.5703362,7.59352909 L14.2217177,1.80487455 C14.3822065,1.64043818 14.4814683,1.41665636 14.4814683,1.16907455 C14.4814683,0.664329091 14.0723611,0.255401818 13.5673935,0.255401818 C13.1480818,0.255401818 12.7986554,0.539456364 12.6910444,0.924274545 L6.00772269,0.922729091 C5.89980249,0.538529091 5.55037606,0.255401818 5.13199202,0.255401818 C4.62702444,0.255401818 4.21760798,0.664329091 4.21760798,1.16907455 C4.21760798,1.41511091 4.3165606,1.63734727 4.47488479,1.80178364 C2.54345337,5.11214727 1.59103441,6.75960182 1.12224638,7.58951091 C1.05514414,7.57374727 0.985877307,7.56323818 0.913827431,7.56323818 C0.409169077,7.56323818 6.18453865e-05,7.97216545 6.18453865e-05,8.47691091 C6.18453865e-05,8.98134727 0.409169077,9.39027455 0.913827431,9.39027455 C0.991752618,9.39027455 1.06596708,9.37760182 1.13801696,9.35905636 L4.48354314,15.1424564 C4.32398204,15.3068927 4.22502943,15.5303655 4.22502943,15.7773291 C4.22502943,16.2820745 4.63413666,16.6910018 5.13879501,16.6910018 C5.55686983,16.6910018 5.90505935,16.4091109 6.01390723,16.0264564 L12.6997027,16.0276927 C12.8091691,16.4097291 13.1573586,16.6910018 13.5745057,16.6910018 C14.0791641,16.6910018 14.4882713,16.2820745 14.4882713,15.7773291 C14.4882713,15.5306745 14.3896279,15.3075109 14.2303761,15.1433836 L17.5694085,9.35967455 C17.6411491,9.37760182 17.7150544,9.39027455 17.7923611,9.39027455 C18.2970195,9.39027455 18.7061267,8.98134727 18.7061267,8.47691091 C18.7061267,7.97216545 18.2970195,7.56323818 17.7923611,7.56323818 L17.7923611,7.56323818 Z" id="Fill-1" fill="#E22327" mask="url(#mask-2)"></path>
                                </g>
                                <polygon id="Fill-4" fill="#221E1F" points="33.425205 13.1006945 33.425205 15.80524 22.1449157 15.80524 22.1449157 1.24304 33.1546314 1.24304 33.1546314 3.94758545 25.4953895 3.94758545 25.4953895 7.10958545 32.2594195 7.10958545 32.2594195 9.73098545 25.4953895 9.73098545 25.4953895 13.1006945"></polygon>
                                <polygon id="Fill-6" fill="#221E1F" points="49.4708668 1.24294727 49.4708668 15.8051473 46.7029766 15.8051473 39.4395451 6.96391091 39.4395451 15.8051473 36.1094803 15.8051473 36.1094803 1.24294727 38.898398 1.24294727 46.140802 10.0841836 46.140802 1.24294727"></polygon>
                                <path d="M61.3549526,8.38885091 C61.8818753,7.95210545 62.1459551,7.33145091 62.1459551,6.52719636 C62.1459551,5.70903273 61.8818753,5.08126909 61.3549526,4.64452364 C60.8274115,4.20746909 60.0574364,3.98925091 59.0447182,3.98925091 L56.2975461,3.98925091 L56.2975461,9.04412364 L59.0447182,9.04412364 C60.0574364,9.04412364 60.8274115,8.82590545 61.3549526,8.38885091 M62.5930973,1.88805091 C63.5433516,2.31799636 64.2752918,2.92814182 64.7886085,3.71879636 C65.3022344,4.50914182 65.5588928,5.44537818 65.5588928,6.52719636 C65.5588928,7.59541455 65.3022344,8.52763273 64.7886085,9.32508727 C64.2752918,10.1225418 63.5433516,10.7329964 62.5930973,11.1558327 C61.6428429,11.5789782 60.5225137,11.7903964 59.2321097,11.7903964 L56.2975461,11.7903964 L56.2975461,15.8051782 L52.9257357,15.8051782 L52.9257357,1.24297818 L59.2321097,1.24297818 C60.5225137,1.24297818 61.6428429,1.45810545 62.5930973,1.88805091" id="Fill-8" fill="#221E1F"></path>
                                <mask id="mask-4" fill="white">
                                    <use xlink:href="#path-3"></use>
                                </mask>
                                <g id="Clip-11"></g>
                                <polygon id="Fill-10" fill="#221E1F" mask="url(#mask-4)" points="67.9523092 15.8051782 71.3238105 15.8051782 71.3238105 1.24297818 67.9523092 1.24297818"></polygon>
                                <path d="M77.7231691,15.0874382 C76.5230594,14.4426745 75.579608,13.5481655 74.892815,12.4039109 C74.2060219,11.2596564 73.86278,9.96672909 73.86278,8.52420182 C73.86278,7.08198364 74.2060219,5.78843818 74.892815,4.64449273 C75.579608,3.50023818 76.5230594,2.60572909 77.7231691,1.96065636 C78.9232788,1.31589273 80.2727451,0.993201818 81.7712589,0.993201818 C83.0338324,0.993201818 84.1748798,1.21543818 85.1947102,1.65929273 C86.2145406,2.10314727 87.0710993,2.74111091 87.7653137,3.57287455 L85.6007252,5.57022 C84.615219,4.43307455 83.3947002,3.86403818 81.9379322,3.86403818 C81.035608,3.86403818 80.2309995,4.06185636 79.5234883,4.45718364 C78.8159771,4.85251091 78.2643162,5.40362 77.8691242,6.11112909 C77.4733137,6.81832909 77.2760269,7.62289273 77.2760269,8.52420182 C77.2760269,9.42582 77.4733137,10.2300745 77.8691242,10.9372745 C78.2643162,11.6444745 78.8159771,12.1962018 79.5234883,12.59122 C80.2309995,12.9862382 81.035608,13.1840564 81.9379322,13.1840564 C83.3947002,13.1840564 84.615219,12.6085291 85.6007252,11.4574745 L87.7653137,13.4545109 C87.0710993,14.3004927 86.2111392,14.9455655 85.1845057,15.38942 C84.1575631,15.8329655 83.012805,16.0548927 81.7502314,16.0548927 C80.2656329,16.0548927 78.9232788,15.7325109 77.7231691,15.0874382" id="Fill-12" fill="#221E1F" mask="url(#mask-4)"></path>
                                <path d="M99.1075102,12.5911582 C99.8011062,12.19614 100.345964,11.6444127 100.741156,10.9372127 C101.136657,10.2300127 101.334253,9.42575818 101.334253,8.52414 C101.334253,7.62283091 101.136657,6.81826727 100.741156,6.11106727 C100.345964,5.40355818 99.8011062,4.85244909 99.1075102,4.45743091 C98.413605,4.06179455 97.6365177,3.86428545 96.7765576,3.86428545 C95.9162883,3.86428545 95.139201,4.06179455 94.445605,4.45743091 C93.7516998,4.85244909 93.2071511,5.40355818 92.8119591,6.11106727 C92.4161486,6.81826727 92.2188618,7.62283091 92.2188618,8.52414 C92.2188618,9.42575818 92.4161486,10.2300127 92.8119591,10.9372127 C93.2071511,11.6444127 93.7516998,12.19614 94.445605,12.5911582 C95.139201,12.9861764 95.9162883,13.1839945 96.7765576,13.1839945 C97.6365177,13.1839945 98.413605,12.9861764 99.1075102,12.5911582 M92.6867222,15.0771764 C91.4726973,14.4256127 90.5224429,13.5270855 89.8356499,12.38314 C89.1488569,11.2388855 88.805615,9.95275818 88.805615,8.52414 C88.805615,7.09614 89.1488569,5.80939455 89.8356499,4.66514 C90.5224429,3.52088545 91.4726973,2.62328545 92.6867222,1.97141273 C93.9007471,1.31954 95.2638195,0.993449091 96.7765576,0.993449091 C98.2886773,0.993449091 99.6486574,1.31954 100.85557,1.97141273 C102.062792,2.62328545 103.013046,3.52088545 103.706952,4.66514 C104.400548,5.80939455 104.7475,7.09614 104.7475,8.52414 C104.7475,9.95275818 104.400548,11.2388855 103.706952,12.38314 C103.013046,13.5270855 102.062792,14.4256127 100.85557,15.0771764 C99.6486574,15.7290491 98.2886773,16.0548309 96.7765576,16.0548309 C95.2638195,16.0548309 93.9007471,15.7290491 92.6867222,15.0771764" id="Fill-13" fill="#221E1F" mask="url(#mask-4)"></path>
                                <polygon id="Fill-14" fill="#221E1F" mask="url(#mask-4)" points="120.544142 15.80524 120.523423 7.06785818 116.235992 14.2659673 114.716451 14.2659673 110.450047 7.25516727 110.450047 15.80524 107.286655 15.80524 107.286655 1.24304 110.075573 1.24304 115.528172 10.2922945 120.898206 1.24304 123.666097 1.24304 123.707533 15.80524"></polygon>
                            </g>
                        </g>
                    </g>
                </g>
            </g>
        </g>
    </g>
</svg>