<?xml version="1.0" standalone="no"?>
<!DOCTYPE svg PUBLIC "-//W3C//DTD SVG 20010904//EN"
 "http://www.w3.org/TR/2001/REC-SVG-20010904/DTD/svg10.dtd">
<svg version="1.0" xmlns="http://www.w3.org/2000/svg"
 width="1080.000000pt" height="941.000000pt" viewBox="0 0 1080.000000 941.000000"
 preserveAspectRatio="xMidYMid meet">

<g transform="translate(0.000000,941.000000) scale(0.100000,-0.100000)"
fill="#000000" stroke="none">
<path d="M7692 6640 c-23 -11 -67 -45 -98 -77 -106 -112 -132 -214 -56 -221
25 -3 32 -8 32 -25 0 -114 -349 -344 -705 -465 -178 -61 -395 -93 -619 -93
-171 1 -319 18 -431 51 -16 5 -49 14 -72 20 -23 6 -56 22 -72 36 l-30 25 -21
-33 c-11 -18 -20 -41 -20 -50 0 -20 20 -68 29 -68 3 -1 17 -9 29 -20 l24 -20
-20 -32 c-11 -18 -25 -52 -31 -75 -19 -71 -100 -160 -203 -222 -32 -19 -38
-28 -38 -57 0 -31 3 -34 29 -34 42 0 123 73 195 175 l15 20 6 -20 c26 -82 79
-126 195 -164 179 -57 452 -70 680 -31 300 51 591 188 794 373 65 59 78 67 95
58 26 -14 67 -14 94 0 103 53 115 169 20 184 -54 9 -103 32 -103 50 0 21 32
39 143 79 124 45 151 61 183 109 36 54 27 72 -34 63 -101 -16 -167 -23 -171
-20 -2 2 9 18 24 36 39 46 85 147 85 186 0 27 -6 36 -35 53 -19 12 -35 25 -35
30 0 22 63 77 101 88 45 14 99 64 99 93 0 23 -24 23 -78 -2z m-207 -576 l25
-16 -58 -37 c-71 -46 -109 -91 -118 -137 -3 -19 -15 -41 -27 -49 -48 -34 -74
-109 -42 -121 8 -4 15 -10 15 -14 0 -15 -177 -120 -267 -159 -240 -104 -441
-145 -713 -145 -195 1 -305 15 -437 55 -122 38 -173 77 -173 133 0 36 23 106
35 106 3 0 32 -9 65 -20 87 -29 314 -60 443 -60 410 1 840 159 1157 424 36 30
66 55 68 55 1 1 14 -6 27 -15z m-91 -266 c13 -10 -22 -48 -45 -48 -48 0 -60
20 -34 57 14 20 19 21 43 11 15 -7 31 -15 36 -20z m131 -20 c16 -15 -24 -38
-65 -38 -48 0 -55 9 -29 36 17 18 28 22 53 17 17 -3 36 -10 41 -15z"/>
</g>
</svg>
